<?xml version="1.0" encoding="utf-8"?>
<!-- Generator: Adobe Illustrator 25.2.0, SVG Export Plug-In . SVG Version: 6.00 Build 0)  -->
<svg version="1.1" id="Layer_1" xmlns="http://www.w3.org/2000/svg" xmlns:xlink="http://www.w3.org/1999/xlink" x="0px" y="0px"
	 viewBox="0 0 24 24" style="enable-background:new 0 0 24 24;" xml:space="preserve">
<style type="text/css">
	.st0{fill:#595959;}
</style>
<g id="_Group_2">
	<g id="_Group_3">
		<path id="_Path_" class="st0" d="M18.4,12.8c0-1.9,1-3.6,2.6-4.6c-1-1.4-2.6-2.3-4.4-2.4c-1.9-0.2-3.6,1.1-4.6,1.1
			c-1,0-2.4-1.1-4-1.1c-2.1,0.1-3.9,1.2-4.9,3C0.9,12.6,2.5,18,4.6,21c1,1.5,2.2,3.1,3.8,3c1.5-0.1,2.1-1,3.9-1c1.8,0,2.4,1,4,0.9
			c1.6,0,2.7-1.5,3.7-2.9c0.7-1,1.3-2.2,1.7-3.4C19.6,16.8,18.4,14.9,18.4,12.8z"/>
		<path id="_Path_2" class="st0" d="M15.3,3.8c0.9-1.1,1.3-2.5,1.2-3.8c-1.4,0.1-2.6,0.8-3.5,1.8c-0.9,1-1.3,2.4-1.3,3.7
			C13.2,5.5,14.5,4.9,15.3,3.8z"/>
	</g>
</g>
</svg>
