<svg id="Layer_1" data-name="Layer 1" xmlns="http://www.w3.org/2000/svg" viewBox="0 0 783.37 415.12"><defs><style>.cls-1{fill:#6aaa26;}.cls-2{fill:#a2d64a;}.cls-3{fill:#7dc33e;}.cls-4{fill:#fe2f5b;}.cls-5{fill:#4c4c4c;}.cls-6{fill:#d8d8d8;}.cls-7{fill:#191919;}.cls-8{fill:#231f20;}.cls-9{fill:#fd9900;}.cls-10{fill:#fc7e03;}.cls-11{fill:#ff3155;}</style></defs><path class="cls-1" d="M228.38,222.06s-.6-34.05,22.7-36.44,37.64-9.56,37.64-9.56-26.89,31.66-43,32.86S228.38,222.06,228.38,222.06Z" transform="translate(-123.12 -176.06)"/><path class="cls-1" d="M226.72,218.06s.41-23.33-15.56-25-25.78-6.55-25.78-6.55,18.42,21.69,29.47,22.51S226.72,218.06,226.72,218.06Z" transform="translate(-123.12 -176.06)"/><path class="cls-2" d="M208.5,355.56,204,586.42s-22.64,2.26-22.64,0,11.32-6.79,11.32-6.79V355.56Z" transform="translate(-123.12 -176.06)"/><path class="cls-2" d="M242.19,355.56l4.53,230.86s22.63,2.26,22.63,0S258,579.63,258,579.63V355.56Z" transform="translate(-123.12 -176.06)"/><path class="cls-3" d="M315.51,267.93a10.43,10.43,0,0,0-9.84,9.33c-3.15,29.64-11,122.08,15.87,98.75,31.94-27.68,46.21-54.46,46.21-54.46s10.09,3.65,11.51,1-7.86-11.06-14-9.18S321.72,369.23,313.68,365s1.83-97,1.83-97Z" transform="translate(-123.12 -176.06)"/><path class="cls-1" d="M325.38,313.56c0,57.16-44.55,103.5-99.5,103.5s-99.5-46.34-99.5-103.5,44.55-103.5,99.5-103.5c47.49,0,87.21,34.61,97.12,80.9A107.69,107.69,0,0,1,325.38,313.56Z" transform="translate(-123.12 -176.06)"/><path class="cls-3" d="M242.36,211.49c-47.09,8.19-83,50.77-83,102.07s35.9,93.9,83,102.08c47.1-8.18,83-50.76,83-102.08A107.69,107.69,0,0,0,323,291C314.26,250.14,282.34,218.42,242.36,211.49Z" transform="translate(-123.12 -176.06)"/><rect class="cls-4" x="159.83" y="316.44" width="44.45" height="78.1" rx="3.84" transform="translate(-236.51 -89.33) rotate(-20.59)"/><path class="cls-3" d="M136.51,294.93a10.43,10.43,0,0,0-9.84,9.33c-3.15,29.64-11,122.08,15.87,98.75,31.94-27.68,46.21-54.46,46.21-54.46s10.09,3.65,11.51,1-7.86-11.06-14-9.18S142.72,396.23,134.68,392s1.83-97,1.83-97Z" transform="translate(-123.12 -176.06)"/><path class="cls-5" d="M205.79,574.44H191.86v3.8l-8.24,1.92a8,8,0,0,0-5.34,4.22l-2.49,5h30.59Z" transform="translate(-123.12 -176.06)"/><polygon class="cls-6" points="83.1 409.13 54.75 409.13 52.67 413.3 83.26 413.3 83.1 409.13"/><path class="cls-5" d="M245.38,574.44h13.93v3.8l8.24,1.92a8,8,0,0,1,5.34,4.22l2.49,5H244.79Z" transform="translate(-123.12 -176.06)"/><polygon class="cls-6" points="121.83 409.13 150.18 409.13 152.26 413.3 121.67 413.3 121.83 409.13"/><circle class="cls-7" cx="102.53" cy="140.37" r="6.63"/><circle class="cls-7" cx="151.63" cy="140.37" r="6.63"/><path class="cls-8" d="M250.2,347.91a16.79,16.79,0,0,1-14.63-8.57,1.81,1.81,0,1,1,3.16-1.77,13.16,13.16,0,0,0,22.94,0,1.81,1.81,0,1,1,3.16,1.77A16.79,16.79,0,0,1,250.2,347.91Z" transform="translate(-123.12 -176.06)"/><path class="cls-9" d="M859.27,250.13s22.11,2.93,32.11,24.93,16,85,15,89-68.45,34.14-68.45,34.14Z" transform="translate(-123.12 -176.06)"/><polygon class="cls-10" points="734.26 77 773.98 117.26 771.26 79 729.44 65.97 734.26 77"/><path class="cls-2" d="M798,355.56l4.52,230.86s22.64,2.26,22.64,0-11.32-6.79-11.32-6.79V355.56Z" transform="translate(-123.12 -176.06)"/><path class="cls-2" d="M764.33,355.56l-4.52,230.86s-22.64,2.26-22.64,0,11.32-6.79,11.32-6.79V355.56Z" transform="translate(-123.12 -176.06)"/><path class="cls-1" d="M681.15,313.56c0,57.16,44.55,103.5,99.5,103.5s99.5-46.34,99.5-103.5-44.55-103.5-99.5-103.5c-47.49,0-87.21,34.61-97.12,80.9A107.69,107.69,0,0,0,681.15,313.56Z" transform="translate(-123.12 -176.06)"/><path class="cls-3" d="M764.17,211.49c47.09,8.19,83,50.77,83,102.07s-35.9,93.9-83,102.08c-47.1-8.18-83-50.76-83-102.08a107.69,107.69,0,0,1,2.38-22.6C692.27,250.14,724.19,218.42,764.17,211.49Z" transform="translate(-123.12 -176.06)"/><path class="cls-3" d="M764.17,211.49c47.09,8.19,83,50.77,83,102.07s-35.9,93.9-83,102.08c-47.1-8.18-83-50.76-83-102.08a107.69,107.69,0,0,1,2.38-22.6C692.27,250.14,724.19,218.42,764.17,211.49Z" transform="translate(-123.12 -176.06)"/><path class="cls-5" d="M802.3,575.74h11.5v3.14l6.81,1.59A6.6,6.6,0,0,1,825,584l2.05,4.11H801.81Z" transform="translate(-123.12 -176.06)"/><polygon class="cls-6" points="678.83 408.56 702.23 408.56 703.95 412 678.69 412 678.83 408.56"/><path class="cls-5" d="M760,575.74h-11.5v3.14l-6.8,1.59a6.57,6.57,0,0,0-4.41,3.48l-2.06,4.11h25.26Z" transform="translate(-123.12 -176.06)"/><polygon class="cls-6" points="637.23 408.56 613.82 408.56 612.1 412 637.36 412 637.23 408.56"/><circle class="cls-7" cx="608.66" cy="140.37" r="6.63"/><path class="cls-8" d="M787.38,324.56a1.47,1.47,0,0,1-.83-.25l-9-6a1.51,1.51,0,0,1-.67-1.19,1.48,1.48,0,0,1,.58-1.24l9-7a1.5,1.5,0,0,1,1.84,2.37L780.94,317l7.27,4.84a1.5,1.5,0,0,1-.83,2.75Z" transform="translate(-123.12 -176.06)"/><path class="cls-8" d="M756.33,347.91A16.8,16.8,0,0,0,771,339.34a1.81,1.81,0,1,0-3.16-1.77,13.16,13.16,0,0,1-22.94,0,1.81,1.81,0,1,0-3.16,1.77A16.79,16.79,0,0,0,756.33,347.91Z" transform="translate(-123.12 -176.06)"/><path class="cls-10" d="M879.06,298.25c-.44-3.1-1-6.16-1.72-9.17-1.68,1-68,36-69.08,123.94,2.78-.83,5.5-1.79,8.18-2.86C817,398.05,822.37,331.13,879.06,298.25Z" transform="translate(-123.12 -176.06)"/><path class="cls-10" d="M681.35,307.1c38.15,29.84,46.95,76.18,49,95.74a97.26,97.26,0,0,0,8.56,4.68c-2.73-61.34-37.4-95.79-56.51-110.24C681.89,300.5,681.54,303.78,681.35,307.1Z" transform="translate(-123.12 -176.06)"/><path class="cls-2" d="M875.55,295.22a3.9,3.9,0,0,1,3.69,3.46C881.61,319.21,892.94,428.11,864,403c-29.69-25.73-44.11-50.69-46-54.07a.52.52,0,0,0-.64-.24c-1.93.65-9.83,3.17-11.08.82-1.43-2.68,7.86-11.06,14-9.18s43.53,55.89,51.56,51.61c6.85-3.65.7-71.52-1.27-91.52a4.76,4.76,0,0,1,5-5.21Z" transform="translate(-123.12 -176.06)"/><path class="cls-2" d="M684,300.22a3.89,3.89,0,0,0-3.69,3.46c-2.37,20.53-13.7,129.43,15.25,104.33,29.69-25.73,44.11-50.69,46-54.07a.52.52,0,0,1,.64-.24c1.93.65,9.83,3.17,11.08.82,1.43-2.68-7.86-11.06-14-9.18S695.72,401.23,687.68,397c-6.84-3.65-.69-71.52,1.28-91.52a4.76,4.76,0,0,0-5-5.21Z" transform="translate(-123.12 -176.06)"/><rect class="cls-11" x="372.94" y="189.47" width="49" height="68.32" rx="3.88" transform="translate(-179.14 -0.87) rotate(-23.27)"/><path class="cls-2" d="M396.11,239.12a10.63,10.63,0,1,0-7.49-1.34c-26.66,79.55,40.71,89.71,40.71,89.71l7.05-7.05C372,308.17,390.26,253.21,396.11,239.12Z" transform="translate(-123.12 -176.06)"/><polygon class="cls-2" points="394.05 234 433.26 410.43 414.26 412.43 423.26 406 382.26 234 394.05 234"/><path class="cls-2" d="M547.52,405.13,563.28,434a5.3,5.3,0,0,0,6.1,2.55l49-14.05,7,16L614.6,432.7l-46.25,13.62A11.12,11.12,0,0,1,556,441.48l-20.26-32.42Z" transform="translate(-123.12 -176.06)"/><path class="cls-5" d="M555.62,575.54l-11.4,1.6.44,3.11-6.52,2.51a6.61,6.61,0,0,0-3.88,4.06l-1.47,4.36,25-3.5Z" transform="translate(-123.12 -176.06)"/><polygon class="cls-6" points="434.07 408.23 410.9 411.47 409.67 415.12 434.69 411.62 434.07 408.23"/><path class="cls-5" d="M608.1,424.41l4.48,10.6,2.89-1.22,4.12,5.64a6.61,6.61,0,0,0,4.92,2.71l4.59.29-9.84-23.26Z" transform="translate(-123.12 -176.06)"/><polygon class="cls-6" points="493.02 244.57 502.14 266.13 505.98 266.37 496.14 243.1 493.02 244.57"/><path class="cls-1" d="M422.15,314c0,57.16,44.55,103.5,99.5,103.5s99.5-46.34,99.5-103.5-44.55-103.5-99.5-103.5c-47.49,0-87.21,34.61-97.12,80.9A107.69,107.69,0,0,0,422.15,314Z" transform="translate(-123.12 -176.06)"/><path class="cls-3" d="M505.17,211.92c47.09,8.19,83,50.77,83,102.07s-35.9,93.9-83,102.08c-47.1-8.18-83-50.77-83-102.08a107.69,107.69,0,0,1,2.38-22.6C433.27,250.57,465.19,218.85,505.17,211.92Z" transform="translate(-123.12 -176.06)"/><path class="cls-8" d="M524.38,305a1.47,1.47,0,0,1-.83-.25l-9-6a1.51,1.51,0,0,1-.67-1.19,1.48,1.48,0,0,1,.58-1.24l9-7a1.5,1.5,0,1,1,1.84,2.36l-7.36,5.73,7.27,4.84a1.5,1.5,0,0,1-.83,2.75Z" transform="translate(-123.12 -176.06)"/><path class="cls-8" d="M465.38,305a1.47,1.47,0,0,0,.83-.25l9-6a1.51,1.51,0,0,0,.67-1.19,1.48,1.48,0,0,0-.58-1.24l-9-7a1.5,1.5,0,1,0-1.84,2.36l7.36,5.73-7.27,4.84a1.5,1.5,0,0,0,.83,2.75Z" transform="translate(-123.12 -176.06)"/><path class="cls-8" d="M493.33,328.34A16.82,16.82,0,0,0,508,319.77,1.81,1.81,0,1,0,504.8,318a13.15,13.15,0,0,1-22.94,0,1.81,1.81,0,0,0-3.16,1.78A16.81,16.81,0,0,0,493.33,328.34Z" transform="translate(-123.12 -176.06)"/><path class="cls-2" d="M638,244.12a10.57,10.57,0,0,1-8.5-11.27,10.58,10.58,0,0,1,21.12.9,10.54,10.54,0,0,1-5.14,9c23,68.72-24.1,85.66-37.36,89a5.93,5.93,0,0,1-5.62-1.57h0a3.72,3.72,0,0,1,1.69-6.22C660.86,309.37,643.61,257.72,638,244.12Z" transform="translate(-123.12 -176.06)"/></svg>